<svg width="27" height="14" viewBox="0 0 27 14" fill="none" xmlns="http://www.w3.org/2000/svg">
<path d="M9.97141 10.9H3.89141L2.77141 14H0.851406L5.89141 0.14H7.99141L13.0114 14H11.0914L9.97141 10.9ZM9.45141 9.42L6.93141 2.38L4.41141 9.42H9.45141Z" fill="white"/>
<path d="M19.548 0.0599995C21.068 0.0599995 22.3813 0.346666 23.488 0.919999C24.608 1.48 25.4613 2.28667 26.048 3.34C26.648 4.39333 26.948 5.63333 26.948 7.06C26.948 8.48667 26.648 9.72667 26.048 10.78C25.4613 11.82 24.608 12.62 23.488 13.18C22.3813 13.7267 21.068 14 19.548 14H15.208V0.0599995H19.548ZM19.548 12.5C21.348 12.5 22.7213 12.0267 23.668 11.08C24.6146 10.12 25.088 8.78 25.088 7.06C25.088 5.32667 24.608 3.97333 23.648 3C22.7013 2.02667 21.3346 1.54 19.548 1.54H17.028V12.5H19.548Z" fill="#FFD369"/>
</svg>
